<?xml version="1.0" encoding="UTF-8"?>
<svg width="16px" height="16px" viewBox="0 0 16 16" version="1.1" xmlns="http://www.w3.org/2000/svg" xmlns:xlink="http://www.w3.org/1999/xlink">
    <!-- Generator: Sketch 47.1 (45422) - http://www.bohemiancoding.com/sketch -->
    <title>Group 3</title>
    <desc>Created with Sketch.</desc>
    <defs>
        <polygon id="path-1" points="0 16 16 16 16 0 0 0"></polygon>
        <path d="M10.49544,13.11872 L9.70744,13.11872 L10.28824,5.06272 L11.90904,5.06272 L10.49544,13.11872 L10.49544,13.11872 Z M7.25544,13.11872 L6.67464,5.06272 L9.32584,5.06272 L8.74504,13.11872 L7.25544,13.11872 L7.25544,13.11872 Z M4.09144,5.06272 L5.71144,5.06272 L6.29304,13.11872 L5.50504,13.11872 L4.09144,5.06272 L4.09144,5.06272 Z M7.24664,2.88192 L8.75384,2.88192 C9.08904,2.88192 9.36184,3.15392 9.36184,3.48912 L9.36184,4.10192 L6.63864,4.10192 L6.63864,3.48912 C6.63864,3.15392 6.91144,2.88192 7.24664,2.88192 L7.24664,2.88192 Z M13.92024,4.10192 L10.32184,4.10192 L10.32184,3.48912 C10.32184,2.62512 9.61784,1.92112 8.75384,1.92112 L7.24664,1.92112 C6.38184,1.92112 5.67864,2.62512 5.67864,3.48912 L5.67864,4.10192 L2.08024,4.10192 C1.81464,4.10192 1.60024,4.31712 1.60024,4.58272 C1.60024,4.84752 1.81464,5.06272 2.08024,5.06272 L3.11704,5.06272 L4.62904,13.68112 C4.66904,13.91072 4.86824,14.07792 5.10184,14.07792 L6.80904,14.07792 L9.19144,14.07792 L10.89864,14.07792 C11.13144,14.07792 11.33064,13.91072 11.37144,13.68112 L12.88344,5.06272 L13.92024,5.06272 C14.18504,5.06272 14.40024,4.84752 14.40024,4.58272 C14.40024,4.31712 14.18504,4.10192 13.92024,4.10192 L13.92024,4.10192 Z" id="path-3"></path>
    </defs>
    <g id="Page-1" stroke="none" stroke-width="1" fill="none" fill-rule="evenodd">
        <g id="Artboard-Copy-5" transform="translate(-212.000000, -372.000000)">
            <g id="Group-4" transform="translate(0.000000, 360.000000)">
                <g id="Group-3" transform="translate(212.000000, 12.000000)">
                    <g id="2-Edit/trash">
                        <g id="icon-trash">
                            <mask id="mask-2" fill="white">
                                <use xlink:href="#path-1"></use>
                            </mask>
                            <g></g>
                            <mask id="mask-4" fill="white">
                                <use xlink:href="#path-3"></use>
                            </mask>
                            <use fill="#A6A6A6" xlink:href="#path-3"></use>
                            <g id="color/03-G80" mask="url(#mask-4)" fill="#A6A6A6">
                                <polygon id="color" points="0 16 16 16 16 0 0 0"></polygon>
                            </g>
                        </g>
                    </g>
                </g>
            </g>
        </g>
    </g>
</svg>